<?xml version="1.0" standalone="no"?><!DOCTYPE svg PUBLIC "-//W3C//DTD SVG 1.1//EN" "http://www.w3.org/Graphics/SVG/1.1/DTD/svg11.dtd" [<!ENTITY nbsp " ">]><svg data-noselect="" viewBox="150.47535705566 132.3970665130575 403.3838236084 302.5378677063" width="403.3838236084" ref="svg_canvas" height="302.5378677063" preserveAspectRatio="none" version="1.1" xmlns="http://www.w3.org/2000/svg" style="background: rgba(255, 255, 255, 0);"><g id="shape_Ma7pMBedQW" ref="shape_Ma7pMBedQW" key="shape_Ma7pMBedQW" transform="translate(230.47535705566,224.26962280273) rotate(130,61.264601160881,49.498168434332) scale(1,1)" style="cursor:move;display:inline;opacity:1;" filter="">
            <g style="display:inline"><rect fill="rgba(0,0,0,0)" width="142.52920232176132" height="118.99633686866389" x="-10" y="-10"></rect><svg version="1.1" id="图层_1" xmlns="http://www.w3.org/2000/svg" xmlns:xlink="http://www.w3.org/1999/xlink" x="0px" y="0px" width="122.52920232176133" height="98.99633686866389" viewBox="6.960039138793945 30.70000457763672 174.66989135742188 141.1229248046875" style="enable-background:new 0 0 200 200;" xml:space="preserve" preserveAspectRatio="none" data-parent="shape_Ma7pMBedQW">
<style type="text/css">
	.st0{fill:#2E8C3D;}
</style>
<g>
	<path class="" d="M168.8,51.2c0.2,0.6,0.3,1.2,0.3,1.8c0.3,2.1,0.4,4.1,0.3,6c0,0.6-0.1,1.2-0.2,1.8c-0.6,3.9-2.2,7.3-4.8,9.9
		c-9.2,8.9-26.3,4.4-41.1-8.8c-2.8-2.5-5.4-4.4-8.7-4.4c-5,0.1-7,3.5-7.2,8.1c-0.1,2.9,3.1,7,6.7,10.4c10.1,9.4,36,18.9,49.9,7.9
		c2-1.6,3.7-3.5,5-5.7c1.1-1.7,1.9-3.6,2.5-5.5c1-3.3,1.4-6.8,1.2-10.5c0-0.2,0-0.3-0.1-0.5L168.8,51.2z" fill="#2E8C3D"></path>
	<path class="" d="M153.9,159.9c-37.1,25.9-94,7.3-133.6-33.6C8.7,114.4,6.3,104.9,7.1,98c1-8.6,9.5-16.3,18.2-17.7
		c6.5-1.1,14.3,0.3,26,12.6c34,35.8,79.9,53.4,106.6,31.7c22.5-18.3,22.1-57.5,1.2-93.9C190.1,76.5,189.8,134.7,153.9,159.9z" fill="#2E8C3D"></path>
	<path class="" d="M161.4,112.8c-23.7,15.9-59.9,0.4-80.6-17.6c-7.3-6.3-10.4-11.4-9.9-17.1c0.6-7.2,5.2-11.5,11.1-11.7
		c6.2-0.2,10.8,3.2,15.2,7.5c22.8,22.2,50.2,31.1,66.1,18c13.4-11,12.5-34-0.7-55.1C182.2,63.4,183.3,98.1,161.4,112.8z" fill="#2E8C3D"></path>
</g>
</svg></g>
        </g><g id="shape_19ZomB9OLD" ref="shape_19ZomB9OLD" key="shape_19ZomB9OLD" transform="translate(313.68518066406,257.85775756836) rotate(0,118.5,35.1335) scale(1,1)" style="cursor:move;display:inline;opacity:1;" filter="">
            <g style="display:inline"><svg xmlns="http://www.w3.org/2000/svg" version="1.1" xmlns:xlink="http://www.w3.org/1999/xlink" overflow="hidden" style="top:0; left: 0" width="160.174" height="70.267" viewBox="0 0 155.174 70.267" preserveAspectRatio="none" data-parent="shape_19ZomB9OLD"><rect fill="rgba(0,0,0,0)" width="160.174" height="70.267"></rect> <rect opacity="0"></rect><g transform="translate(0 0)" data-width="150.174"><path fill="#000000" d="M9.80 0L0.17 0L16.18-38.69L25.64-38.69L41.64 0L32.02 0L28.25-8.93L13.57-8.93L9.80 0ZM26.45-15.83L20.94-29.35L15.43-15.83L26.45-15.83Z" transform="translate(5 49.822)" data-glyph-w="41.876000000000005"></path><path fill="#000000" d="M3.48-16.94L3.48-38.69L11.66-38.69L11.66-16.94Q11.83-12.82 12.01-11.48L12.01-11.48Q12.41-8.82 14.56-7.86Q16.70-6.90 22.10-6.90L22.10-6.90L29.99-6.90L29.99 0L21.23 0Q15.02 0 12.24-0.70L12.24-0.70Q5.86-2.55 4.12-8.82L4.12-8.82Q3.48-11.25 3.48-16.94L3.48-16.94Z" transform="translate(46.876000000000005 49.822)" data-glyph-w="30.856"></path><path fill="#000000" d="M19.08-38.69L32.94-38.69L32.94-31.78L22.21-31.78Q18.04-31.78 16.12-31.20Q14.21-30.62 12.93-28.94L12.93-28.94Q12.06-27.78 11.75-26.62Q11.43-25.46 11.19-22.68L11.19-22.68L32.94-22.68L32.94-15.78L11.19-15.78Q11.66-10.79 14.15-8.85Q16.65-6.90 22.62-6.90L22.62-6.90L32.94-6.90L32.94 0L22.21 0Q17.86 0 14.56-0.52L14.56-0.52Q9.34-1.39 6.26-5.10L6.26-5.10Q1.86-10.44 1.86-19.55L1.86-19.55Q1.86-29.64 8.06-35.26L8.06-35.26Q10.21-37.18 12.62-37.93Q15.02-38.69 19.08-38.69L19.08-38.69Z" transform="translate(77.732 49.822)" data-glyph-w="35.496"></path><path fill="#000000" d="M0.23 0L13.40-19.55L0.70-38.69L10.79-38.69L18.39-25.93L26.62-38.69L36.60-38.69L23.49-19.55L36.60 0L26.91 0L18.39-13.28L10.03 0L0.23 0Z" transform="translate(113.22800000000001 49.822)" data-glyph-w="36.946000000000005"></path></g></svg></g>
        </g><g id="shape_gGiVW7LxQh" ref="shape_gGiVW7LxQh" key="shape_gGiVW7LxQh" transform="translate(313.68518066406,315.18713378906) rotate(0,85.92578125,13.937622070312) scale(1,1)" style="cursor:move;display:inline;opacity:1;" filter="">
            <g style="display:inline"><svg xmlns="http://www.w3.org/2000/svg" version="1.1" xmlns:xlink="http://www.w3.org/1999/xlink" overflow="hidden" style="top:0; left: 0" width="68.69970703125" height="27.875244140625" viewBox="0 0 63.69970703125 27.875244140625" preserveAspectRatio="none" data-parent="shape_gGiVW7LxQh"><rect fill="rgba(0,0,0,0)" width="68.69970703125" height="27.875244140625"></rect> <rect opacity="0"></rect><g transform="translate(0 0)" data-width="58.69970703125"><path fill="#000000" d="M0.30 0L0.30 0L5.99-15.07L7.15-15.07L8.32-15.07L13.73 0L13.73 0L12.63 0L11.54 0L11.54 0L10.01-4.37L10.01-4.37L3.98-4.37L3.98-4.37L2.40 0L2.40 0L1.35 0L0.30 0ZM7.05-12.86L7.05-12.86L4.63-6.17L4.63-6.17L9.38-6.17L9.38-6.17L7.05-12.86L7.05-12.86Z" transform="translate(5 19.482421875)" data-glyph-w="14.0068359375"></path><path fill="#000000" d="M11.28 0L1.60 0L1.60 0L1.60-15.07L1.60-15.07L2.61-15.07L3.64-15.07L3.64-15.07L3.64-1.80L3.64-1.80L11.28-1.80L11.28-1.80L11.28-0.90L11.28 0L11.28 0Z" transform="translate(19.0068359375 19.482421875)" data-glyph-w="11.67919921875"></path><path fill="#000000" d="M12.94 0L1.80 0L1.80 0L1.80-15.07L1.80-15.07L12.83-15.07L12.83-15.07L12.83-14.17L12.83-13.27L12.83-13.27L3.85-13.27L3.85-13.27L3.85-8.66L3.85-8.66L12.05-8.66L12.05-7.76L12.05-6.86L12.05-6.86L3.85-6.86L3.85-6.86L3.85-1.80L3.85-1.80L12.94-1.80L12.94-1.80L12.94-0.90L12.94 0L12.94 0Z" transform="translate(30.68603515625 19.482421875)" data-glyph-w="14.0068359375"></path><path fill="#000000" d="M0.40 0L0.40 0L5.75-7.53L5.75-7.53L0.74-15.07L0.74-15.07L2.00-15.07L3.26-15.07L3.26-15.07L6.96-9.19L6.96-9.19L6.96-9.19L10.94-15.07L10.94-15.07L12.16-15.07L13.39-15.07L13.39-15.07L8.11-7.66L8.11-7.66L13.61 0L13.61 0L12.36 0L11.10 0L11.10 0L6.97-6.06L6.97-6.06L6.97-6.06L2.88 0L2.88 0L1.64 0L0.40 0Z" transform="translate(44.69287109375 19.482421875)" data-glyph-w="14.0068359375"></path></g></svg></g>
        </g></svg>