<?xml version="1.0" standalone="no"?><!DOCTYPE svg PUBLIC "-//W3C//DTD SVG 1.1//EN" "http://www.w3.org/Graphics/SVG/1.1/DTD/svg11.dtd" [<!ENTITY nbsp " ">]><svg data-noselect="" viewBox="135.1693649292 143.12470030975499 445.5255867309601 334.14419004822" width="445.5255867309601" ref="svg_canvas" height="334.14419004822" preserveAspectRatio="none" version="1.1" xmlns="http://www.w3.org/2000/svg" style="background: rgba(255, 255, 255, 0);"><g id="shape_XC3anufg94" ref="shape_XC3anufg94" key="shape_XC3anufg94" transform="translate(215.1693649292,256.34009552002) rotate(0,47.055337721988,50.366662267237) scale(1,1)" style="cursor:move;display:inline;opacity:1;" filter="">
            <g style="display:inline"><rect fill="rgba(0,0,0,0)" width="114.11067544397508" height="120.73332453447381" x="-10" y="-10"></rect><svg version="1.1" id="图层_1" xmlns="http://www.w3.org/2000/svg" xmlns:xlink="http://www.w3.org/1999/xlink" x="0px" y="0px" width="94.11067544397508" height="100.73332453447381" viewBox="20.32799530029297 29.573009490966797 143.8211669921875 153.94198608398438" enable-background="new 0 0 200 200" xml:space="preserve" preserveAspectRatio="none" data-parent="shape_XC3anufg94">
<g>
	<g>
		<path fill="#268CC4" d="M101.72,132.048c-1.162,0-2.339-0.289-3.424-0.901c-17.057-9.614-27.652-27.74-27.652-47.301
			c0-29.923,24.345-54.273,54.269-54.273c12.813,0,25.156,4.81,36.688,14.298c2.98,2.451,3.408,6.852,0.957,9.833
			c-2.451,2.986-6.854,3.418-9.837,0.955c-8.963-7.37-18.319-11.11-27.808-11.11c-22.217,0-40.292,18.076-40.292,40.296
			c0,14.528,7.87,27.985,20.539,35.126c3.362,1.894,4.552,6.158,2.656,9.516C106.531,130.771,104.16,132.048,101.72,132.048z"></path>
	</g>
	<g>
		<path fill="#268CC4" d="M127.259,183.515H77.631c-32.132,0-57.303-23.863-57.303-54.322c0-30.529,25.706-55.37,57.303-55.37
			c3.86,0,6.988,3.128,6.988,6.988s-3.128,6.988-6.988,6.988c-23.891,0-43.326,18.568-43.326,41.394
			c0,22.624,19.032,40.346,43.326,40.346h49.628c3.86,0,6.988,3.128,6.988,6.988S131.119,183.515,127.259,183.515z"></path>
	</g>
</g>
</svg></g>
        </g><g id="shape_mI5FT2hDya" ref="shape_mI5FT2hDya" key="shape_mI5FT2hDya" transform="translate(296.33795166016,271.0569152832) rotate(0,147,43.00825) scale(1,1)" style="cursor:move;display:inline;opacity:1;" filter="">
            <g style="display:inline"><svg xmlns="http://www.w3.org/2000/svg" version="1.1" xmlns:xlink="http://www.w3.org/1999/xlink" overflow="hidden" style="top:0; left: 0" width="204.35700000000003" height="86.0165" viewBox="0 0 199.35700000000003 86.0165" preserveAspectRatio="none" data-parent="shape_mI5FT2hDya"><rect fill="rgba(0,0,0,0)" width="204.35700000000003" height="86.0165"></rect> <rect opacity="0"></rect><g transform="translate(0 0)" data-width="194.35700000000003"><path fill="#268cc4" d="M4.26-20.73L4.26-47.36L14.27-47.36L14.27-20.73Q14.48-15.69 14.70-14.06L14.70-14.06Q15.19-10.79 17.82-9.62Q20.45-8.45 27.05-8.45L27.05-8.45L36.71-8.45L36.71 0L25.99 0Q18.39 0 14.98-0.85L14.98-0.85Q7.17-3.12 5.04-10.79L5.04-10.79Q4.26-13.77 4.26-20.73L4.26-20.73Z" transform="translate(5 60.989000000000004)" data-glyph-w="37.772000000000006"></path><path fill="#268cc4" d="M25.63-47.64L25.63-47.64Q32.73-47.64 38.13-45.23L38.13-45.23Q44.45-42.32 47.00-35.50L47.00-35.50Q48.99-30.18 48.99-23.00L48.99-23.00Q48.99-15.76 46.58-10.44L46.58-10.44Q43.52-4.12 37.20-1.56L37.20-1.56Q32.52 0.28 26.41 0.28L26.41 0.28Q18.39 0.28 12.50-2.70L12.50-2.70Q7.53-5.18 4.90-10.51Q2.27-15.83 2.27-23.43L2.27-23.43Q2.27-36.99 9.02-42.74L9.02-42.74Q14.70-47.57 25.63-47.64ZM25.70-39.69L25.70-39.69Q18.74-39.69 15.76-35.15L15.76-35.15Q13.35-31.60 13.35-23.71L13.35-23.71Q13.35-15.41 16.33-11.50L16.33-11.50Q19.31-7.67 25.77-7.67L25.77-7.67Q32.02-7.67 34.97-11.57Q37.91-15.48 37.91-23.64L37.91-23.64Q37.91-31.10 35.50-35.00L35.50-35.00Q32.73-39.62 25.70-39.69Z" transform="translate(42.772000000000006 60.989000000000004)" data-glyph-w="51.26200000000001"></path><path fill="#268cc4" d="M22.22-19.67L22.22-28.12L45.44-28.12L45.44 0L24.28 0Q18.82 0 15.58-0.82Q12.35-1.63 9.73-3.69L9.73-3.69Q2.27-9.44 2.27-23.50L2.27-23.50Q2.27-32.66 5.82-38.77L5.82-38.77Q8.45-43.24 12.99-45.30Q17.54-47.36 24.78-47.36L24.78-47.36L45.44-47.36L45.44-38.91L25.92-38.91Q19.60-38.91 16.76-36.14L16.76-36.14Q13.35-32.87 13.35-24.42L13.35-24.42Q13.35-20.09 14.24-16.61Q15.12-13.14 16.69-11.43L16.69-11.43Q18.03-9.87 20.41-9.16Q22.79-8.45 26.27-8.45L26.27-8.45L35.43-8.45L35.43-19.67L22.22-19.67Z" transform="translate(94.03400000000002 60.989000000000004)" data-glyph-w="49.06100000000001"></path><path fill="#268cc4" d="M25.63-47.64L25.63-47.64Q32.73-47.64 38.13-45.23L38.13-45.23Q44.45-42.32 47.00-35.50L47.00-35.50Q48.99-30.18 48.99-23.00L48.99-23.00Q48.99-15.76 46.58-10.44L46.58-10.44Q43.52-4.12 37.20-1.56L37.20-1.56Q32.52 0.28 26.41 0.28L26.41 0.28Q18.39 0.28 12.50-2.70L12.50-2.70Q7.53-5.18 4.90-10.51Q2.27-15.83 2.27-23.43L2.27-23.43Q2.27-36.99 9.02-42.74L9.02-42.74Q14.70-47.57 25.63-47.64ZM25.70-39.69L25.70-39.69Q18.74-39.69 15.76-35.15L15.76-35.15Q13.35-31.60 13.35-23.71L13.35-23.71Q13.35-15.41 16.33-11.50L16.33-11.50Q19.31-7.67 25.77-7.67L25.77-7.67Q32.02-7.67 34.97-11.57Q37.91-15.48 37.91-23.64L37.91-23.64Q37.91-31.10 35.50-35.00L35.50-35.00Q32.73-39.62 25.70-39.69Z" transform="translate(143.09500000000003 60.989000000000004)" data-glyph-w="51.26200000000001"></path></g></svg></g>
        </g><g id="shape_EaogVlim6U" ref="shape_EaogVlim6U" key="shape_EaogVlim6U" transform="translate(296.33796691895,334.80049514771) rotate(0,86.942,14.6265) scale(1,1)" style="cursor:move;display:inline;opacity:1;" filter="">
            <g style="display:inline"><svg xmlns="http://www.w3.org/2000/svg" version="1.1" xmlns:xlink="http://www.w3.org/1999/xlink" overflow="hidden" style="top:0; left: 0" width="71.84700000000001" height="29.253" viewBox="0 0 66.84700000000001 29.253" preserveAspectRatio="none" data-parent="shape_EaogVlim6U"><rect fill="rgba(0,0,0,0)" width="71.84700000000001" height="29.253"></rect> <rect opacity="0"></rect><g transform="translate(0 0)" data-width="61.84700000000001"><path fill="#268cc4" d="M10.63-1.79L10.63 0L1.89 0L1.89-14.70L3.89-14.70L3.89-1.79L10.63-1.79Z" transform="translate(5 19.32)" data-glyph-w="10.731"></path><path fill="#268cc4" d="M1.05-7.37L1.05-7.37Q1.05-8.99 1.52-10.37Q2.00-11.76 2.89-12.78Q3.78-13.80 5.06-14.37Q6.34-14.95 7.98-14.95L7.98-14.95Q9.60-14.95 10.89-14.35Q12.18-13.76 13.07-12.73Q13.97-11.70 14.45-10.32Q14.93-8.95 14.93-7.37L14.93-7.37Q14.93-5.80 14.46-4.41Q13.99-3.02 13.08-1.98Q12.18-0.95 10.90-0.35Q9.62 0.25 7.98 0.25L7.98 0.25Q6.34 0.25 5.06-0.35Q3.78-0.95 2.89-1.98Q2.00-3.02 1.52-4.41Q1.05-5.80 1.05-7.37ZM3.09-7.37L3.09-7.37Q3.09-6.24 3.41-5.17Q3.74-4.10 4.37-3.28Q5.00-2.46 5.91-1.96Q6.83-1.47 7.98-1.47L7.98-1.47Q9.20-1.47 10.11-1.92Q11.03-2.37 11.64-3.16Q12.26-3.95 12.58-5.03Q12.89-6.11 12.89-7.37L12.89-7.37Q12.89-8.51 12.56-9.55Q12.22-10.61 11.59-11.42Q10.96-12.24 10.05-12.74Q9.13-13.23 7.98-13.23L7.98-13.23Q6.83-13.23 5.91-12.78Q5.00-12.33 4.37-11.54Q3.74-10.75 3.41-9.68Q3.09-8.61 3.09-7.37Z" transform="translate(15.731 19.32)" data-glyph-w="15.981000000000002"></path><path fill="#268cc4" d="M7.85-6.22L7.85-7.79L12.79-7.79L12.79 0L11.03 0L11.03-1.47Q10.29-0.82 9.24-0.28Q8.19 0.25 6.91 0.25L6.91 0.25Q5.63 0.25 4.56-0.25Q3.49-0.76 2.71-1.70Q1.93-2.65 1.49-3.98Q1.05-5.31 1.05-6.97L1.05-6.97Q1.05-8.74 1.50-10.20Q1.95-11.66 2.81-12.72Q3.68-13.78 4.92-14.36Q6.17-14.95 7.77-14.95L7.77-14.95Q9.16-14.95 10.22-14.62Q11.28-14.28 12.22-13.76L12.22-13.76L11.49-12.10Q10.61-12.58 9.70-12.89Q8.80-13.21 7.67-13.21L7.67-13.21Q6.68-13.21 5.84-12.81Q5.00-12.41 4.39-11.63Q3.78-10.86 3.43-9.71Q3.09-8.57 3.09-7.10L3.09-7.10Q3.09-5.78 3.40-4.74Q3.72-3.70 4.28-2.97Q4.85-2.25 5.64-1.87Q6.43-1.49 7.37-1.49L7.37-1.49Q7.96-1.49 8.48-1.63Q9.01-1.76 9.45-1.98Q9.89-2.21 10.26-2.47Q10.63-2.73 10.90-3.00L10.90-3.00L10.90-6.22L7.85-6.22Z" transform="translate(31.712000000000003 19.32)" data-glyph-w="14.154000000000002"></path><path fill="#268cc4" d="M1.05-7.37L1.05-7.37Q1.05-8.99 1.52-10.37Q2.00-11.76 2.89-12.78Q3.78-13.80 5.06-14.37Q6.34-14.95 7.98-14.95L7.98-14.95Q9.60-14.95 10.89-14.35Q12.18-13.76 13.07-12.73Q13.97-11.70 14.45-10.32Q14.93-8.95 14.93-7.37L14.93-7.37Q14.93-5.80 14.46-4.41Q13.99-3.02 13.08-1.98Q12.18-0.95 10.90-0.35Q9.62 0.25 7.98 0.25L7.98 0.25Q6.34 0.25 5.06-0.35Q3.78-0.95 2.89-1.98Q2.00-3.02 1.52-4.41Q1.05-5.80 1.05-7.37ZM3.09-7.37L3.09-7.37Q3.09-6.24 3.41-5.17Q3.74-4.10 4.37-3.28Q5.00-2.46 5.91-1.96Q6.83-1.47 7.98-1.47L7.98-1.47Q9.20-1.47 10.11-1.92Q11.03-2.37 11.64-3.16Q12.26-3.95 12.58-5.03Q12.89-6.11 12.89-7.37L12.89-7.37Q12.89-8.51 12.56-9.55Q12.22-10.61 11.59-11.42Q10.96-12.24 10.05-12.74Q9.13-13.23 7.98-13.23L7.98-13.23Q6.83-13.23 5.91-12.78Q5.00-12.33 4.37-11.54Q3.74-10.75 3.41-9.68Q3.09-8.61 3.09-7.37Z" transform="translate(45.86600000000001 19.32)" data-glyph-w="15.981000000000002"></path></g></svg></g>
        </g></svg>